G04 EAGLE Gerber RS-274X export*
G75*
%MOMM*%
%FSLAX34Y34*%
%LPD*%
%INTop Copper*%
%IPPOS*%
%AMOC8*
5,1,8,0,0,1.08239X$1,22.5*%
G01*
%ADD10C,1.778000*%
%ADD11R,0.800000X0.800000*%
%ADD12R,1.288000X1.288000*%
%ADD13C,1.288000*%
%ADD14C,3.220000*%
%ADD15R,1.031241X0.949959*%
%ADD16R,0.949959X1.031241*%
%ADD17C,4.445000*%
%ADD18C,1.016000*%
%ADD19R,1.143000X1.270000*%
%ADD20R,1.524000X1.524000*%
%ADD21P,1.649562X8X202.500000*%
%ADD22C,0.254000*%
%ADD23C,0.609600*%

G36*
X632444Y504308D02*
X632444Y504308D01*
X632437Y504427D01*
X632424Y504465D01*
X632419Y504506D01*
X632376Y504616D01*
X632339Y504729D01*
X632317Y504764D01*
X632302Y504801D01*
X632233Y504897D01*
X632169Y504998D01*
X632139Y505026D01*
X632116Y505059D01*
X632024Y505135D01*
X631937Y505216D01*
X631902Y505236D01*
X631871Y505261D01*
X631763Y505312D01*
X631659Y505370D01*
X631619Y505380D01*
X631583Y505397D01*
X631466Y505419D01*
X631351Y505449D01*
X631291Y505453D01*
X631271Y505457D01*
X631250Y505455D01*
X631190Y505459D01*
X3810Y505459D01*
X3692Y505444D01*
X3573Y505437D01*
X3535Y505424D01*
X3494Y505419D01*
X3384Y505376D01*
X3271Y505339D01*
X3236Y505317D01*
X3199Y505302D01*
X3103Y505233D01*
X3002Y505169D01*
X2974Y505139D01*
X2941Y505116D01*
X2865Y505024D01*
X2784Y504937D01*
X2764Y504902D01*
X2739Y504871D01*
X2688Y504763D01*
X2630Y504659D01*
X2620Y504619D01*
X2603Y504583D01*
X2581Y504466D01*
X2551Y504351D01*
X2547Y504291D01*
X2543Y504271D01*
X2545Y504250D01*
X2541Y504190D01*
X2541Y3810D01*
X2556Y3692D01*
X2563Y3573D01*
X2576Y3535D01*
X2581Y3494D01*
X2624Y3384D01*
X2661Y3271D01*
X2683Y3236D01*
X2698Y3199D01*
X2767Y3103D01*
X2831Y3002D01*
X2861Y2974D01*
X2884Y2941D01*
X2976Y2865D01*
X3063Y2784D01*
X3098Y2764D01*
X3129Y2739D01*
X3237Y2688D01*
X3341Y2630D01*
X3381Y2620D01*
X3417Y2603D01*
X3534Y2581D01*
X3649Y2551D01*
X3709Y2547D01*
X3729Y2543D01*
X3750Y2545D01*
X3810Y2541D01*
X631190Y2541D01*
X631308Y2556D01*
X631427Y2563D01*
X631465Y2576D01*
X631506Y2581D01*
X631616Y2624D01*
X631729Y2661D01*
X631764Y2683D01*
X631801Y2698D01*
X631897Y2767D01*
X631998Y2831D01*
X632026Y2861D01*
X632059Y2884D01*
X632135Y2976D01*
X632216Y3063D01*
X632236Y3098D01*
X632261Y3129D01*
X632312Y3237D01*
X632370Y3341D01*
X632380Y3381D01*
X632397Y3417D01*
X632419Y3534D01*
X632449Y3649D01*
X632453Y3709D01*
X632457Y3729D01*
X632455Y3750D01*
X632459Y3810D01*
X632459Y504190D01*
X632444Y504308D01*
G37*
%LPC*%
G36*
X63500Y430531D02*
X63500Y430531D01*
X63618Y430546D01*
X63737Y430553D01*
X63775Y430566D01*
X63816Y430571D01*
X63926Y430614D01*
X64039Y430651D01*
X64074Y430673D01*
X64111Y430688D01*
X64207Y430758D01*
X64308Y430821D01*
X64336Y430851D01*
X64369Y430874D01*
X64445Y430966D01*
X64526Y431053D01*
X64546Y431088D01*
X64571Y431119D01*
X64622Y431227D01*
X64680Y431331D01*
X64690Y431371D01*
X64707Y431407D01*
X64729Y431524D01*
X64759Y431639D01*
X64763Y431700D01*
X64767Y431720D01*
X64765Y431740D01*
X64769Y431800D01*
X64769Y464185D01*
X64767Y464202D01*
X64769Y464219D01*
X64747Y464359D01*
X64729Y464500D01*
X64723Y464516D01*
X64721Y464533D01*
X64665Y464664D01*
X64612Y464796D01*
X64602Y464810D01*
X64596Y464825D01*
X64509Y464938D01*
X64426Y465053D01*
X64412Y465064D01*
X64402Y465078D01*
X64290Y465165D01*
X64181Y465256D01*
X64165Y465263D01*
X64152Y465274D01*
X64021Y465331D01*
X63893Y465391D01*
X63876Y465395D01*
X63860Y465402D01*
X63719Y465425D01*
X63581Y465451D01*
X63563Y465450D01*
X63547Y465453D01*
X63404Y465440D01*
X63263Y465431D01*
X63247Y465426D01*
X63230Y465425D01*
X63095Y465377D01*
X62961Y465333D01*
X62946Y465324D01*
X62930Y465319D01*
X62812Y465239D01*
X62692Y465163D01*
X62680Y465151D01*
X62666Y465141D01*
X62572Y465035D01*
X62474Y464932D01*
X62466Y464917D01*
X62454Y464904D01*
X62389Y464778D01*
X62320Y464653D01*
X62316Y464637D01*
X62308Y464621D01*
X62263Y464467D01*
X61935Y463033D01*
X61017Y460408D01*
X59810Y457901D01*
X58330Y455546D01*
X56595Y453371D01*
X54629Y451405D01*
X52454Y449670D01*
X50099Y448190D01*
X47592Y446983D01*
X44967Y446065D01*
X42255Y445446D01*
X40639Y445264D01*
X40639Y468630D01*
X40624Y468748D01*
X40617Y468867D01*
X40604Y468905D01*
X40599Y468945D01*
X40556Y469056D01*
X40519Y469169D01*
X40497Y469203D01*
X40482Y469241D01*
X40412Y469337D01*
X40349Y469438D01*
X40319Y469466D01*
X40295Y469498D01*
X40204Y469574D01*
X40117Y469656D01*
X40082Y469675D01*
X40051Y469701D01*
X39943Y469752D01*
X39839Y469809D01*
X39799Y469820D01*
X39763Y469837D01*
X39646Y469859D01*
X39531Y469889D01*
X39470Y469893D01*
X39450Y469897D01*
X39430Y469895D01*
X39370Y469899D01*
X38099Y469899D01*
X38099Y469901D01*
X39370Y469901D01*
X39488Y469916D01*
X39607Y469923D01*
X39645Y469936D01*
X39685Y469941D01*
X39796Y469985D01*
X39909Y470021D01*
X39944Y470043D01*
X39981Y470058D01*
X40077Y470128D01*
X40178Y470191D01*
X40206Y470221D01*
X40239Y470245D01*
X40314Y470336D01*
X40396Y470423D01*
X40416Y470458D01*
X40441Y470490D01*
X40492Y470597D01*
X40550Y470702D01*
X40560Y470741D01*
X40577Y470777D01*
X40599Y470894D01*
X40629Y471009D01*
X40633Y471070D01*
X40637Y471090D01*
X40635Y471110D01*
X40639Y471170D01*
X40639Y494536D01*
X42255Y494354D01*
X44967Y493735D01*
X47592Y492817D01*
X50099Y491610D01*
X52454Y490130D01*
X54629Y488395D01*
X56595Y486429D01*
X58330Y484254D01*
X59810Y481899D01*
X61017Y479392D01*
X61935Y476767D01*
X62263Y475333D01*
X62268Y475317D01*
X62271Y475300D01*
X62323Y475168D01*
X62372Y475034D01*
X62381Y475020D01*
X62388Y475004D01*
X62471Y474889D01*
X62552Y474772D01*
X62564Y474761D01*
X62574Y474747D01*
X62684Y474656D01*
X62791Y474563D01*
X62806Y474555D01*
X62819Y474544D01*
X62948Y474484D01*
X63075Y474420D01*
X63092Y474416D01*
X63107Y474409D01*
X63246Y474382D01*
X63386Y474351D01*
X63403Y474352D01*
X63420Y474349D01*
X63561Y474358D01*
X63703Y474363D01*
X63720Y474367D01*
X63737Y474369D01*
X63872Y474412D01*
X64008Y474453D01*
X64023Y474461D01*
X64039Y474467D01*
X64159Y474543D01*
X64282Y474615D01*
X64294Y474628D01*
X64308Y474637D01*
X64406Y474740D01*
X64506Y474841D01*
X64514Y474856D01*
X64526Y474868D01*
X64595Y474993D01*
X64667Y475115D01*
X64671Y475132D01*
X64680Y475147D01*
X64715Y475284D01*
X64754Y475421D01*
X64755Y475438D01*
X64759Y475455D01*
X64769Y475615D01*
X64769Y494031D01*
X557531Y494031D01*
X557531Y431800D01*
X557546Y431682D01*
X557553Y431563D01*
X557566Y431525D01*
X557571Y431484D01*
X557614Y431374D01*
X557651Y431261D01*
X557673Y431226D01*
X557688Y431189D01*
X557758Y431093D01*
X557821Y430992D01*
X557851Y430964D01*
X557874Y430931D01*
X557966Y430856D01*
X558053Y430774D01*
X558088Y430754D01*
X558119Y430729D01*
X558227Y430678D01*
X558331Y430620D01*
X558371Y430610D01*
X558407Y430593D01*
X558524Y430571D01*
X558639Y430541D01*
X558700Y430537D01*
X558720Y430533D01*
X558740Y430535D01*
X558800Y430531D01*
X621031Y430531D01*
X621031Y77469D01*
X558800Y77469D01*
X558682Y77454D01*
X558563Y77447D01*
X558525Y77434D01*
X558484Y77429D01*
X558374Y77386D01*
X558261Y77349D01*
X558226Y77327D01*
X558189Y77312D01*
X558093Y77243D01*
X557992Y77179D01*
X557964Y77149D01*
X557931Y77126D01*
X557856Y77034D01*
X557774Y76947D01*
X557754Y76912D01*
X557729Y76881D01*
X557678Y76773D01*
X557620Y76669D01*
X557610Y76629D01*
X557593Y76593D01*
X557571Y76476D01*
X557541Y76361D01*
X557537Y76301D01*
X557533Y76281D01*
X557535Y76260D01*
X557531Y76200D01*
X557531Y13969D01*
X77469Y13969D01*
X77469Y76200D01*
X77454Y76318D01*
X77447Y76437D01*
X77434Y76475D01*
X77429Y76516D01*
X77386Y76626D01*
X77349Y76739D01*
X77327Y76774D01*
X77312Y76811D01*
X77243Y76907D01*
X77179Y77008D01*
X77149Y77036D01*
X77126Y77069D01*
X77034Y77145D01*
X76947Y77226D01*
X76912Y77246D01*
X76881Y77271D01*
X76773Y77322D01*
X76669Y77380D01*
X76629Y77390D01*
X76593Y77407D01*
X76476Y77429D01*
X76361Y77459D01*
X76301Y77463D01*
X76281Y77467D01*
X76260Y77465D01*
X76200Y77469D01*
X13969Y77469D01*
X13969Y430531D01*
X63500Y430531D01*
G37*
%LPD*%
%LPC*%
G36*
X599439Y472439D02*
X599439Y472439D01*
X599439Y494536D01*
X601055Y494354D01*
X603767Y493735D01*
X606392Y492817D01*
X608899Y491610D01*
X611254Y490130D01*
X613429Y488395D01*
X615395Y486429D01*
X617130Y484254D01*
X618610Y481899D01*
X619817Y479392D01*
X620735Y476767D01*
X621354Y474055D01*
X621536Y472439D01*
X599439Y472439D01*
G37*
%LPD*%
%LPC*%
G36*
X599439Y40639D02*
X599439Y40639D01*
X599439Y62736D01*
X601055Y62554D01*
X603767Y61935D01*
X606392Y61017D01*
X608899Y59810D01*
X611254Y58330D01*
X613429Y56595D01*
X615395Y54629D01*
X617130Y52454D01*
X618610Y50099D01*
X619817Y47592D01*
X620735Y44967D01*
X621354Y42255D01*
X621536Y40639D01*
X599439Y40639D01*
G37*
%LPD*%
%LPC*%
G36*
X40639Y40639D02*
X40639Y40639D01*
X40639Y62736D01*
X42255Y62554D01*
X44967Y61935D01*
X47592Y61017D01*
X50099Y59810D01*
X52454Y58330D01*
X54629Y56595D01*
X56595Y54629D01*
X58330Y52454D01*
X59810Y50099D01*
X61017Y47592D01*
X61935Y44967D01*
X62554Y42255D01*
X62736Y40639D01*
X40639Y40639D01*
G37*
%LPD*%
%LPC*%
G36*
X572264Y40639D02*
X572264Y40639D01*
X572446Y42255D01*
X573065Y44967D01*
X573983Y47592D01*
X575190Y50099D01*
X576670Y52454D01*
X578405Y54629D01*
X580371Y56595D01*
X582546Y58330D01*
X584901Y59810D01*
X587408Y61017D01*
X590033Y61935D01*
X592745Y62554D01*
X594361Y62736D01*
X594361Y40639D01*
X572264Y40639D01*
G37*
%LPD*%
%LPC*%
G36*
X572264Y472439D02*
X572264Y472439D01*
X572446Y474055D01*
X573065Y476767D01*
X573983Y479392D01*
X575190Y481899D01*
X576670Y484254D01*
X578405Y486429D01*
X580371Y488395D01*
X582546Y490130D01*
X584901Y491610D01*
X587408Y492817D01*
X590033Y493735D01*
X592745Y494354D01*
X594361Y494536D01*
X594361Y472439D01*
X572264Y472439D01*
G37*
%LPD*%
%LPC*%
G36*
X40639Y35561D02*
X40639Y35561D01*
X62736Y35561D01*
X62554Y33945D01*
X61935Y31233D01*
X61017Y28608D01*
X59810Y26101D01*
X58330Y23746D01*
X56595Y21571D01*
X54629Y19605D01*
X52454Y17870D01*
X50099Y16390D01*
X47592Y15183D01*
X44967Y14265D01*
X42255Y13646D01*
X40639Y13464D01*
X40639Y35561D01*
G37*
%LPD*%
%LPC*%
G36*
X599439Y467361D02*
X599439Y467361D01*
X621536Y467361D01*
X621354Y465745D01*
X620735Y463033D01*
X619817Y460408D01*
X618610Y457901D01*
X617130Y455546D01*
X615395Y453371D01*
X613429Y451405D01*
X611254Y449670D01*
X608899Y448190D01*
X606392Y446983D01*
X603767Y446065D01*
X601055Y445446D01*
X599439Y445264D01*
X599439Y467361D01*
G37*
%LPD*%
%LPC*%
G36*
X599439Y35561D02*
X599439Y35561D01*
X621536Y35561D01*
X621354Y33945D01*
X620735Y31233D01*
X619817Y28608D01*
X618610Y26101D01*
X617130Y23746D01*
X615395Y21571D01*
X613429Y19605D01*
X611254Y17870D01*
X608899Y16390D01*
X606392Y15183D01*
X603767Y14265D01*
X601055Y13646D01*
X599439Y13464D01*
X599439Y35561D01*
G37*
%LPD*%
%LPC*%
G36*
X13464Y40639D02*
X13464Y40639D01*
X13646Y42255D01*
X14265Y44967D01*
X15183Y47592D01*
X16390Y50099D01*
X17870Y52454D01*
X19605Y54629D01*
X21571Y56595D01*
X23746Y58330D01*
X26101Y59810D01*
X28608Y61017D01*
X31233Y61935D01*
X33945Y62554D01*
X35561Y62736D01*
X35561Y40639D01*
X13464Y40639D01*
G37*
%LPD*%
%LPC*%
G36*
X13464Y472439D02*
X13464Y472439D01*
X13646Y474055D01*
X14265Y476767D01*
X15183Y479392D01*
X16390Y481899D01*
X17870Y484254D01*
X19605Y486429D01*
X21571Y488395D01*
X23746Y490130D01*
X26101Y491610D01*
X28608Y492817D01*
X31233Y493735D01*
X33945Y494354D01*
X35561Y494536D01*
X35561Y472439D01*
X13464Y472439D01*
G37*
%LPD*%
%LPC*%
G36*
X592745Y445446D02*
X592745Y445446D01*
X590033Y446065D01*
X587408Y446983D01*
X584901Y448190D01*
X582546Y449670D01*
X580371Y451405D01*
X578405Y453371D01*
X576670Y455546D01*
X575190Y457901D01*
X573983Y460408D01*
X573065Y463033D01*
X572446Y465745D01*
X572264Y467361D01*
X594361Y467361D01*
X594361Y445264D01*
X592745Y445446D01*
G37*
%LPD*%
%LPC*%
G36*
X592745Y13646D02*
X592745Y13646D01*
X590033Y14265D01*
X587408Y15183D01*
X584901Y16390D01*
X582546Y17870D01*
X580371Y19605D01*
X578405Y21571D01*
X576670Y23746D01*
X575190Y26101D01*
X573983Y28608D01*
X573065Y31233D01*
X572446Y33945D01*
X572264Y35561D01*
X594361Y35561D01*
X594361Y13464D01*
X592745Y13646D01*
G37*
%LPD*%
%LPC*%
G36*
X33945Y13646D02*
X33945Y13646D01*
X31233Y14265D01*
X28608Y15183D01*
X26101Y16390D01*
X23746Y17870D01*
X21571Y19605D01*
X19605Y21571D01*
X17870Y23746D01*
X16390Y26101D01*
X15183Y28608D01*
X14265Y31233D01*
X13646Y33945D01*
X13464Y35561D01*
X35561Y35561D01*
X35561Y13464D01*
X33945Y13646D01*
G37*
%LPD*%
%LPC*%
G36*
X33945Y445446D02*
X33945Y445446D01*
X31233Y446065D01*
X28608Y446983D01*
X26101Y448190D01*
X23746Y449670D01*
X21571Y451405D01*
X19605Y453371D01*
X17870Y455546D01*
X16390Y457901D01*
X15183Y460408D01*
X14265Y463033D01*
X13646Y465745D01*
X13464Y467361D01*
X35561Y467361D01*
X35561Y445264D01*
X33945Y445446D01*
G37*
%LPD*%
%LPC*%
G36*
X596899Y38099D02*
X596899Y38099D01*
X596899Y38101D01*
X596901Y38101D01*
X596901Y38099D01*
X596899Y38099D01*
G37*
%LPD*%
%LPC*%
G36*
X38099Y38099D02*
X38099Y38099D01*
X38099Y38101D01*
X38101Y38101D01*
X38101Y38099D01*
X38099Y38099D01*
G37*
%LPD*%
%LPC*%
G36*
X596899Y469899D02*
X596899Y469899D01*
X596899Y469901D01*
X596901Y469901D01*
X596901Y469899D01*
X596899Y469899D01*
G37*
%LPD*%
D10*
X276860Y190500D03*
X302260Y190500D03*
X327660Y190500D03*
X353060Y190500D03*
D11*
X132200Y485140D03*
X147200Y485140D03*
D12*
X425450Y292100D03*
D13*
X425450Y267100D03*
X425450Y247100D03*
X425450Y222100D03*
D14*
X452550Y322800D03*
X452550Y191400D03*
D15*
X595630Y154559D03*
X595630Y170561D03*
X599440Y208661D03*
X599440Y192659D03*
D11*
X190620Y485140D03*
X205620Y485140D03*
X249040Y485140D03*
X264040Y485140D03*
X307460Y485140D03*
X322460Y485140D03*
X380880Y485140D03*
X365880Y485140D03*
X424300Y485140D03*
X439300Y485140D03*
X487800Y485140D03*
X502800Y485140D03*
X398900Y25400D03*
X413900Y25400D03*
X310000Y25400D03*
X325000Y25400D03*
X240150Y25400D03*
X255150Y25400D03*
D16*
X147701Y459740D03*
X131699Y459740D03*
X206121Y459740D03*
X190119Y459740D03*
X248539Y459740D03*
X264541Y459740D03*
X322961Y459740D03*
X306959Y459740D03*
X365379Y459740D03*
X381381Y459740D03*
X423799Y459740D03*
X439801Y459740D03*
X487299Y459740D03*
X503301Y459740D03*
X414401Y50800D03*
X398399Y50800D03*
X325501Y50800D03*
X309499Y50800D03*
X255651Y50800D03*
X239649Y50800D03*
D17*
X38100Y38100D03*
X38100Y469900D03*
X596900Y38100D03*
X596900Y469900D03*
D18*
X38100Y88900D03*
X546100Y88900D03*
X546100Y469900D03*
D19*
X118110Y38100D03*
X135890Y38100D03*
D20*
X532720Y111500D03*
D21*
X532720Y136900D03*
X507320Y111500D03*
X507320Y136900D03*
X481920Y111500D03*
X481920Y136900D03*
X456520Y111500D03*
X456520Y136900D03*
X431120Y111500D03*
X431120Y136900D03*
X405720Y111500D03*
X405720Y136900D03*
X380320Y111500D03*
X380320Y136900D03*
X354920Y111500D03*
X354920Y136900D03*
X329520Y111500D03*
X329520Y136900D03*
X304120Y111500D03*
X304120Y136900D03*
X278720Y111500D03*
X278720Y136900D03*
X253320Y111500D03*
X253320Y136900D03*
X227920Y111500D03*
X227920Y136900D03*
X202520Y111500D03*
X202520Y136900D03*
X177120Y111500D03*
X177120Y136900D03*
X151720Y111500D03*
X151720Y136900D03*
X126320Y111500D03*
X126320Y136900D03*
X100920Y111500D03*
X100920Y136900D03*
D20*
X532720Y365500D03*
D21*
X532720Y390900D03*
X507320Y365500D03*
X507320Y390900D03*
X481920Y365500D03*
X481920Y390900D03*
X456520Y365500D03*
X456520Y390900D03*
X431120Y365500D03*
X431120Y390900D03*
X405720Y365500D03*
X405720Y390900D03*
X380320Y365500D03*
X380320Y390900D03*
X354920Y365500D03*
X354920Y390900D03*
X329520Y365500D03*
X329520Y390900D03*
X304120Y365500D03*
X304120Y390900D03*
X278720Y365500D03*
X278720Y390900D03*
X253320Y365500D03*
X253320Y390900D03*
X227920Y365500D03*
X227920Y390900D03*
X202520Y365500D03*
X202520Y390900D03*
X177120Y365500D03*
X177120Y390900D03*
X151720Y365500D03*
X151720Y390900D03*
X126320Y365500D03*
X126320Y390900D03*
X100920Y365500D03*
X100920Y390900D03*
D22*
X413900Y25400D02*
X431800Y25400D01*
D23*
X431800Y25400D03*
D22*
X336550Y25400D02*
X325000Y25400D01*
D23*
X336550Y25400D03*
D22*
X266700Y25400D02*
X255150Y25400D01*
D23*
X266700Y25400D03*
D22*
X118110Y38100D02*
X111760Y44450D01*
X101600Y44450D01*
D23*
X101600Y44450D03*
D22*
X205620Y485140D02*
X218440Y485140D01*
D23*
X218440Y485140D03*
D22*
X264040Y485140D02*
X274320Y485140D01*
D23*
X274320Y485140D03*
D22*
X322460Y485140D02*
X332740Y485140D01*
D23*
X332740Y485140D03*
D22*
X355600Y485140D02*
X365880Y485140D01*
D23*
X355600Y485140D03*
D22*
X502800Y485140D02*
X514350Y485140D01*
D23*
X514350Y485140D03*
D22*
X161290Y485140D02*
X147200Y485140D01*
D23*
X161290Y485140D03*
D22*
X439300Y485140D02*
X449580Y485140D01*
D23*
X449580Y485140D03*
D22*
X595630Y188849D02*
X595630Y170561D01*
X595630Y188849D02*
X599440Y192659D01*
X353060Y190500D02*
X353060Y251460D01*
X406400Y304800D02*
X438150Y304800D01*
X406400Y304800D02*
X353060Y251460D01*
X438150Y304800D02*
X533400Y209550D01*
X582549Y209550D02*
X599440Y192659D01*
X582549Y209550D02*
X533400Y209550D01*
X256120Y190500D02*
X202520Y136900D01*
X256120Y190500D02*
X276860Y190500D01*
X276860Y195761D01*
X434249Y353150D01*
X584545Y353150D01*
X609600Y328095D01*
X609600Y168529D01*
X595630Y154559D01*
X256120Y165100D02*
X227920Y136900D01*
X276860Y165100D02*
X302260Y190500D01*
X276860Y165100D02*
X256120Y165100D01*
X302260Y190500D02*
X304800Y193040D01*
X558800Y348070D02*
X599440Y307430D01*
X599440Y208661D01*
X304800Y215900D02*
X304800Y193040D01*
X304800Y215900D02*
X436970Y348070D01*
X558800Y348070D01*
X132200Y460241D02*
X132200Y485140D01*
X132200Y460241D02*
X131699Y459740D01*
X244100Y390900D02*
X253320Y390900D01*
X184226Y450774D02*
X183791Y450774D01*
X174825Y459740D02*
X147701Y459740D01*
X174825Y459740D02*
X183791Y450774D01*
X184226Y450774D02*
X244100Y390900D01*
X190119Y459740D02*
X190119Y484639D01*
X190620Y485140D01*
X209880Y459740D02*
X278720Y390900D01*
X209880Y459740D02*
X206121Y459740D01*
X264541Y459740D02*
X264541Y469639D01*
X249040Y485140D01*
X248539Y446481D02*
X304120Y390900D01*
X248539Y446481D02*
X248539Y459740D01*
X307460Y460241D02*
X307460Y485140D01*
X307460Y460241D02*
X306959Y459740D01*
X322961Y459740D02*
X325501Y457200D01*
X323170Y454869D02*
X323170Y397250D01*
X329520Y390900D01*
X323170Y454869D02*
X325501Y457200D01*
X380880Y460241D02*
X381381Y459740D01*
X380880Y460241D02*
X380880Y485140D01*
X421970Y425450D02*
X456520Y390900D01*
X421970Y425450D02*
X400050Y425450D01*
X365760Y459740D01*
X365379Y459740D01*
X424300Y482600D02*
X424300Y485140D01*
X424300Y482600D02*
X425450Y482600D01*
X439801Y468249D01*
X439801Y459740D01*
X423799Y449021D02*
X481920Y390900D01*
X423799Y449021D02*
X423799Y459740D01*
X502920Y460121D02*
X503301Y459740D01*
X502920Y460121D02*
X502920Y466090D01*
X487800Y481210D01*
X487800Y485140D01*
X507320Y439719D02*
X507320Y390900D01*
X507320Y439719D02*
X487299Y459740D01*
X398399Y50800D02*
X398399Y25901D01*
X398900Y25400D01*
X520700Y124880D02*
X532720Y136900D01*
X520700Y124880D02*
X520700Y82550D01*
X488950Y50800D01*
X414401Y50800D01*
X310000Y25400D02*
X309499Y25901D01*
X309499Y50800D01*
X507320Y127665D02*
X507320Y136900D01*
X507320Y127665D02*
X495890Y116235D01*
X495890Y83140D01*
X363601Y76200D02*
X338201Y50800D01*
X325501Y50800D01*
X488950Y76200D02*
X495890Y83140D01*
X488950Y76200D02*
X363601Y76200D01*
X240150Y25400D02*
X239649Y25901D01*
X239649Y50800D01*
X163150Y116235D02*
X156455Y122930D01*
X140290Y122930D02*
X126320Y136900D01*
X140290Y122930D02*
X156455Y122930D01*
X163150Y116235D02*
X163150Y109306D01*
X183556Y88900D01*
X280226Y62675D02*
X281051Y63500D01*
X280226Y62675D02*
X268351Y50800D01*
X255651Y50800D01*
X280226Y62675D02*
X280226Y81725D01*
X273050Y88900D02*
X183556Y88900D01*
X273050Y88900D02*
X280226Y81725D01*
X488950Y146035D02*
X493350Y141635D01*
X488950Y146035D02*
X488950Y228600D01*
X493350Y122930D02*
X481920Y111500D01*
X493350Y122930D02*
X493350Y141635D01*
X488950Y228600D02*
X425450Y292100D01*
X432640Y199647D02*
X432640Y183153D01*
X432640Y199647D02*
X438150Y205157D01*
X442550Y122930D02*
X431120Y111500D01*
X442550Y122930D02*
X442550Y173243D01*
X432640Y183153D01*
X438150Y254400D02*
X425450Y267100D01*
X438150Y254400D02*
X438150Y205157D01*
X412750Y146035D02*
X417150Y141635D01*
X412750Y146035D02*
X412750Y234950D01*
X417150Y122930D02*
X405720Y111500D01*
X417150Y122930D02*
X417150Y141635D01*
X412750Y234950D02*
X424900Y247100D01*
X425450Y247100D01*
X55880Y55880D02*
X38100Y38100D01*
X55880Y55880D02*
X124460Y55880D01*
X135890Y44450D01*
X135890Y38100D01*
M02*
